<mxfile host="Electron" agent="Mozilla/5.0 (Windows NT 10.0; Win64; x64) AppleWebKit/537.36 (KHTML, like Gecko) draw.io/24.7.8 Chrome/128.0.6613.36 Electron/32.0.1 Safari/537.36" version="24.7.8">
  <diagram name="Página-1" id="StY1zdWXbSatuYRLAxHC">
    <mxGraphModel dx="2234" dy="1244" grid="1" gridSize="10" guides="1" tooltips="1" connect="1" arrows="1" fold="1" page="0" pageScale="1" pageWidth="827" pageHeight="1169" math="0" shadow="0">
      <root>
        <mxCell id="0" />
        <mxCell id="1" parent="0" />
        <mxCell id="Wb_cBal-tWobdx_11K5l-15" style="edgeStyle=orthogonalEdgeStyle;rounded=0;orthogonalLoop=1;jettySize=auto;html=1;entryX=0;entryY=0.5;entryDx=0;entryDy=0;endArrow=none;endFill=0;" parent="1" source="Wb_cBal-tWobdx_11K5l-1" target="Wb_cBal-tWobdx_11K5l-14" edge="1">
          <mxGeometry relative="1" as="geometry" />
        </mxCell>
        <mxCell id="Wb_cBal-tWobdx_11K5l-18" style="edgeStyle=orthogonalEdgeStyle;rounded=0;orthogonalLoop=1;jettySize=auto;html=1;entryX=0;entryY=0.5;entryDx=0;entryDy=0;endArrow=none;endFill=0;" parent="1" source="Wb_cBal-tWobdx_11K5l-1" target="Wb_cBal-tWobdx_11K5l-13" edge="1">
          <mxGeometry relative="1" as="geometry" />
        </mxCell>
        <mxCell id="Wb_cBal-tWobdx_11K5l-1" value="EMPLEADOS" style="rounded=0;whiteSpace=wrap;html=1;" parent="1" vertex="1">
          <mxGeometry x="-300" y="230" width="120" height="60" as="geometry" />
        </mxCell>
        <mxCell id="Wb_cBal-tWobdx_11K5l-2" value="&lt;u&gt;nombre_persona&lt;/u&gt;" style="ellipse;whiteSpace=wrap;html=1;" parent="1" vertex="1">
          <mxGeometry x="-440" y="100" width="120" height="80" as="geometry" />
        </mxCell>
        <mxCell id="Wb_cBal-tWobdx_11K5l-3" value="calle" style="ellipse;whiteSpace=wrap;html=1;" parent="1" vertex="1">
          <mxGeometry x="-310" y="90" width="120" height="80" as="geometry" />
        </mxCell>
        <mxCell id="Wb_cBal-tWobdx_11K5l-4" value="ciudad" style="ellipse;whiteSpace=wrap;html=1;" parent="1" vertex="1">
          <mxGeometry x="-180" y="100" width="120" height="80" as="geometry" />
        </mxCell>
        <mxCell id="Wb_cBal-tWobdx_11K5l-5" value="" style="endArrow=none;html=1;rounded=0;entryX=0;entryY=0;entryDx=0;entryDy=0;" parent="1" source="Wb_cBal-tWobdx_11K5l-2" target="Wb_cBal-tWobdx_11K5l-1" edge="1">
          <mxGeometry width="50" height="50" relative="1" as="geometry">
            <mxPoint x="-410" y="290" as="sourcePoint" />
            <mxPoint x="-300" y="220" as="targetPoint" />
          </mxGeometry>
        </mxCell>
        <mxCell id="Wb_cBal-tWobdx_11K5l-6" value="" style="endArrow=none;html=1;rounded=0;entryX=0.5;entryY=0;entryDx=0;entryDy=0;" parent="1" source="Wb_cBal-tWobdx_11K5l-3" target="Wb_cBal-tWobdx_11K5l-1" edge="1">
          <mxGeometry width="50" height="50" relative="1" as="geometry">
            <mxPoint x="-339" y="184" as="sourcePoint" />
            <mxPoint x="-290" y="240" as="targetPoint" />
          </mxGeometry>
        </mxCell>
        <mxCell id="Wb_cBal-tWobdx_11K5l-7" value="" style="endArrow=none;html=1;rounded=0;entryX=1;entryY=0;entryDx=0;entryDy=0;" parent="1" source="Wb_cBal-tWobdx_11K5l-4" target="Wb_cBal-tWobdx_11K5l-1" edge="1">
          <mxGeometry width="50" height="50" relative="1" as="geometry">
            <mxPoint x="-236" y="180" as="sourcePoint" />
            <mxPoint x="-230" y="240" as="targetPoint" />
          </mxGeometry>
        </mxCell>
        <mxCell id="Wb_cBal-tWobdx_11K5l-8" value="COMPAÑIAS" style="rounded=0;whiteSpace=wrap;html=1;" parent="1" vertex="1">
          <mxGeometry x="290" y="230" width="120" height="60" as="geometry" />
        </mxCell>
        <mxCell id="Wb_cBal-tWobdx_11K5l-9" value="ciudad" style="ellipse;whiteSpace=wrap;html=1;" parent="1" vertex="1">
          <mxGeometry x="380" y="100" width="120" height="80" as="geometry" />
        </mxCell>
        <mxCell id="Wb_cBal-tWobdx_11K5l-10" value="nombre_compañia" style="ellipse;whiteSpace=wrap;html=1;" parent="1" vertex="1">
          <mxGeometry x="190" y="100" width="120" height="80" as="geometry" />
        </mxCell>
        <mxCell id="Wb_cBal-tWobdx_11K5l-11" value="" style="endArrow=none;html=1;rounded=0;entryX=0;entryY=0;entryDx=0;entryDy=0;" parent="1" source="Wb_cBal-tWobdx_11K5l-10" target="Wb_cBal-tWobdx_11K5l-8" edge="1">
          <mxGeometry width="50" height="50" relative="1" as="geometry">
            <mxPoint x="140" y="270" as="sourcePoint" />
            <mxPoint x="190" y="220" as="targetPoint" />
          </mxGeometry>
        </mxCell>
        <mxCell id="Wb_cBal-tWobdx_11K5l-12" value="" style="endArrow=none;html=1;rounded=0;entryX=0.7;entryY=-0.017;entryDx=0;entryDy=0;entryPerimeter=0;" parent="1" source="Wb_cBal-tWobdx_11K5l-9" target="Wb_cBal-tWobdx_11K5l-8" edge="1">
          <mxGeometry width="50" height="50" relative="1" as="geometry">
            <mxPoint x="277" y="188" as="sourcePoint" />
            <mxPoint x="300" y="240" as="targetPoint" />
          </mxGeometry>
        </mxCell>
        <mxCell id="Wb_cBal-tWobdx_11K5l-19" style="edgeStyle=orthogonalEdgeStyle;rounded=0;orthogonalLoop=1;jettySize=auto;html=1;entryX=0;entryY=0.5;entryDx=0;entryDy=0;endArrow=none;endFill=0;" parent="1" source="Wb_cBal-tWobdx_11K5l-13" target="Wb_cBal-tWobdx_11K5l-8" edge="1">
          <mxGeometry relative="1" as="geometry" />
        </mxCell>
        <mxCell id="Wb_cBal-tWobdx_11K5l-13" value="trabaja" style="rhombus;whiteSpace=wrap;html=1;" parent="1" vertex="1">
          <mxGeometry x="20" y="220" width="80" height="80" as="geometry" />
        </mxCell>
        <mxCell id="Wb_cBal-tWobdx_11K5l-17" style="edgeStyle=orthogonalEdgeStyle;rounded=0;orthogonalLoop=1;jettySize=auto;html=1;entryX=0.5;entryY=0;entryDx=0;entryDy=0;endArrow=none;endFill=0;" parent="1" source="Wb_cBal-tWobdx_11K5l-14" target="Wb_cBal-tWobdx_11K5l-16" edge="1">
          <mxGeometry relative="1" as="geometry" />
        </mxCell>
        <mxCell id="Wb_cBal-tWobdx_11K5l-14" value="" style="triangle;whiteSpace=wrap;html=1;direction=south;" parent="1" vertex="1">
          <mxGeometry x="-280" y="350" width="80" height="60" as="geometry" />
        </mxCell>
        <mxCell id="Wb_cBal-tWobdx_11K5l-24" style="edgeStyle=orthogonalEdgeStyle;rounded=0;orthogonalLoop=1;jettySize=auto;html=1;endArrow=classic;endFill=1;exitX=0;exitY=0.5;exitDx=0;exitDy=0;" parent="1" source="Wb_cBal-tWobdx_11K5l-22" target="Wb_cBal-tWobdx_11K5l-16" edge="1">
          <mxGeometry relative="1" as="geometry" />
        </mxCell>
        <mxCell id="Wb_cBal-tWobdx_11K5l-16" value="DIRECTOR" style="rounded=0;whiteSpace=wrap;html=1;" parent="1" vertex="1">
          <mxGeometry x="-300" y="470" width="120" height="60" as="geometry" />
        </mxCell>
        <mxCell id="Wb_cBal-tWobdx_11K5l-20" value="salario" style="ellipse;whiteSpace=wrap;html=1;" parent="1" vertex="1">
          <mxGeometry y="90" width="120" height="80" as="geometry" />
        </mxCell>
        <mxCell id="Wb_cBal-tWobdx_11K5l-21" value="" style="endArrow=none;html=1;rounded=0;" parent="1" source="Wb_cBal-tWobdx_11K5l-13" target="Wb_cBal-tWobdx_11K5l-20" edge="1">
          <mxGeometry width="50" height="50" relative="1" as="geometry">
            <mxPoint x="-30" y="360" as="sourcePoint" />
            <mxPoint x="20" y="310" as="targetPoint" />
          </mxGeometry>
        </mxCell>
        <mxCell id="Wb_cBal-tWobdx_11K5l-22" value="dirige" style="rhombus;whiteSpace=wrap;html=1;" parent="1" vertex="1">
          <mxGeometry x="10" y="460" width="80" height="80" as="geometry" />
        </mxCell>
        <mxCell id="Wb_cBal-tWobdx_11K5l-25" value="" style="endArrow=classic;html=1;rounded=0;entryX=0.5;entryY=1;entryDx=0;entryDy=0;exitX=1;exitY=0.5;exitDx=0;exitDy=0;endFill=1;" parent="1" source="Wb_cBal-tWobdx_11K5l-22" target="Wb_cBal-tWobdx_11K5l-8" edge="1">
          <mxGeometry width="50" height="50" relative="1" as="geometry">
            <mxPoint x="190" y="480" as="sourcePoint" />
            <mxPoint x="240" y="430" as="targetPoint" />
            <Array as="points">
              <mxPoint x="350" y="500" />
            </Array>
          </mxGeometry>
        </mxCell>
        <mxCell id="Wb_cBal-tWobdx_11K5l-26" value="va director?&amp;nbsp;" style="text;html=1;align=center;verticalAlign=middle;resizable=0;points=[];autosize=1;strokeColor=none;fillColor=none;" parent="1" vertex="1">
          <mxGeometry x="-355" y="558" width="90" height="30" as="geometry" />
        </mxCell>
        <mxCell id="Wb_cBal-tWobdx_11K5l-27" value="OPCION 1" style="text;html=1;align=center;verticalAlign=middle;resizable=0;points=[];autosize=1;strokeColor=none;fillColor=none;" parent="1" vertex="1">
          <mxGeometry x="-220" y="-42" width="80" height="30" as="geometry" />
        </mxCell>
        <mxCell id="Wb_cBal-tWobdx_11K5l-28" value="OPCION 2" style="text;html=1;align=center;verticalAlign=middle;resizable=0;points=[];autosize=1;strokeColor=none;fillColor=none;" parent="1" vertex="1">
          <mxGeometry x="910" y="-82" width="80" height="30" as="geometry" />
        </mxCell>
        <mxCell id="Wb_cBal-tWobdx_11K5l-30" style="edgeStyle=orthogonalEdgeStyle;rounded=0;orthogonalLoop=1;jettySize=auto;html=1;entryX=0;entryY=0.5;entryDx=0;entryDy=0;endArrow=none;endFill=0;" parent="1" source="Wb_cBal-tWobdx_11K5l-31" target="Wb_cBal-tWobdx_11K5l-44" edge="1">
          <mxGeometry relative="1" as="geometry" />
        </mxCell>
        <mxCell id="Wb_cBal-tWobdx_11K5l-31" value="EMPLEADOS" style="rounded=0;whiteSpace=wrap;html=1;" parent="1" vertex="1">
          <mxGeometry x="760" y="150" width="120" height="60" as="geometry" />
        </mxCell>
        <mxCell id="Wb_cBal-tWobdx_11K5l-32" value="&lt;u&gt;nombre_persona&lt;/u&gt;" style="ellipse;whiteSpace=wrap;html=1;" parent="1" vertex="1">
          <mxGeometry x="620" y="20" width="120" height="80" as="geometry" />
        </mxCell>
        <mxCell id="Wb_cBal-tWobdx_11K5l-33" value="calle" style="ellipse;whiteSpace=wrap;html=1;" parent="1" vertex="1">
          <mxGeometry x="750" y="10" width="120" height="80" as="geometry" />
        </mxCell>
        <mxCell id="Wb_cBal-tWobdx_11K5l-34" value="ciudad" style="ellipse;whiteSpace=wrap;html=1;" parent="1" vertex="1">
          <mxGeometry x="880" y="20" width="120" height="80" as="geometry" />
        </mxCell>
        <mxCell id="Wb_cBal-tWobdx_11K5l-35" value="" style="endArrow=none;html=1;rounded=0;entryX=0;entryY=0;entryDx=0;entryDy=0;" parent="1" source="Wb_cBal-tWobdx_11K5l-32" target="Wb_cBal-tWobdx_11K5l-31" edge="1">
          <mxGeometry width="50" height="50" relative="1" as="geometry">
            <mxPoint x="650" y="210" as="sourcePoint" />
            <mxPoint x="760" y="140" as="targetPoint" />
          </mxGeometry>
        </mxCell>
        <mxCell id="Wb_cBal-tWobdx_11K5l-36" value="" style="endArrow=none;html=1;rounded=0;entryX=0.5;entryY=0;entryDx=0;entryDy=0;" parent="1" source="Wb_cBal-tWobdx_11K5l-33" target="Wb_cBal-tWobdx_11K5l-31" edge="1">
          <mxGeometry width="50" height="50" relative="1" as="geometry">
            <mxPoint x="721" y="104" as="sourcePoint" />
            <mxPoint x="770" y="160" as="targetPoint" />
          </mxGeometry>
        </mxCell>
        <mxCell id="Wb_cBal-tWobdx_11K5l-37" value="" style="endArrow=none;html=1;rounded=0;entryX=1;entryY=0;entryDx=0;entryDy=0;" parent="1" source="Wb_cBal-tWobdx_11K5l-34" target="Wb_cBal-tWobdx_11K5l-31" edge="1">
          <mxGeometry width="50" height="50" relative="1" as="geometry">
            <mxPoint x="824" y="100" as="sourcePoint" />
            <mxPoint x="830" y="160" as="targetPoint" />
          </mxGeometry>
        </mxCell>
        <mxCell id="Wb_cBal-tWobdx_11K5l-38" value="COMPAÑIAS" style="rounded=0;whiteSpace=wrap;html=1;" parent="1" vertex="1">
          <mxGeometry x="1350" y="150" width="120" height="60" as="geometry" />
        </mxCell>
        <mxCell id="Wb_cBal-tWobdx_11K5l-39" value="ciudad" style="ellipse;whiteSpace=wrap;html=1;" parent="1" vertex="1">
          <mxGeometry x="1440" y="20" width="120" height="80" as="geometry" />
        </mxCell>
        <mxCell id="Wb_cBal-tWobdx_11K5l-40" value="nombre_compañia" style="ellipse;whiteSpace=wrap;html=1;" parent="1" vertex="1">
          <mxGeometry x="1250" y="20" width="120" height="80" as="geometry" />
        </mxCell>
        <mxCell id="Wb_cBal-tWobdx_11K5l-41" value="" style="endArrow=none;html=1;rounded=0;entryX=0;entryY=0;entryDx=0;entryDy=0;" parent="1" source="Wb_cBal-tWobdx_11K5l-40" target="Wb_cBal-tWobdx_11K5l-38" edge="1">
          <mxGeometry width="50" height="50" relative="1" as="geometry">
            <mxPoint x="1200" y="190" as="sourcePoint" />
            <mxPoint x="1250" y="140" as="targetPoint" />
          </mxGeometry>
        </mxCell>
        <mxCell id="Wb_cBal-tWobdx_11K5l-42" value="" style="endArrow=none;html=1;rounded=0;entryX=0.7;entryY=-0.017;entryDx=0;entryDy=0;entryPerimeter=0;" parent="1" source="Wb_cBal-tWobdx_11K5l-39" target="Wb_cBal-tWobdx_11K5l-38" edge="1">
          <mxGeometry width="50" height="50" relative="1" as="geometry">
            <mxPoint x="1337" y="108" as="sourcePoint" />
            <mxPoint x="1360" y="160" as="targetPoint" />
          </mxGeometry>
        </mxCell>
        <mxCell id="Wb_cBal-tWobdx_11K5l-43" style="edgeStyle=orthogonalEdgeStyle;rounded=0;orthogonalLoop=1;jettySize=auto;html=1;entryX=0;entryY=0.5;entryDx=0;entryDy=0;endArrow=none;endFill=0;" parent="1" source="Wb_cBal-tWobdx_11K5l-44" target="Wb_cBal-tWobdx_11K5l-38" edge="1">
          <mxGeometry relative="1" as="geometry" />
        </mxCell>
        <mxCell id="Wb_cBal-tWobdx_11K5l-44" value="trabaja" style="rhombus;whiteSpace=wrap;html=1;" parent="1" vertex="1">
          <mxGeometry x="1080" y="140" width="80" height="80" as="geometry" />
        </mxCell>
        <mxCell id="Wb_cBal-tWobdx_11K5l-47" style="edgeStyle=orthogonalEdgeStyle;rounded=0;orthogonalLoop=1;jettySize=auto;html=1;entryX=0.5;entryY=1;entryDx=0;entryDy=0;endArrow=classic;endFill=1;exitX=0;exitY=0.5;exitDx=0;exitDy=0;" parent="1" source="Wb_cBal-tWobdx_11K5l-51" target="Wb_cBal-tWobdx_11K5l-31" edge="1">
          <mxGeometry relative="1" as="geometry">
            <mxPoint x="880" y="420" as="targetPoint" />
          </mxGeometry>
        </mxCell>
        <mxCell id="Wb_cBal-tWobdx_11K5l-49" value="salario" style="ellipse;whiteSpace=wrap;html=1;" parent="1" vertex="1">
          <mxGeometry x="1060" y="10" width="120" height="80" as="geometry" />
        </mxCell>
        <mxCell id="Wb_cBal-tWobdx_11K5l-50" value="" style="endArrow=none;html=1;rounded=0;" parent="1" source="Wb_cBal-tWobdx_11K5l-44" target="Wb_cBal-tWobdx_11K5l-49" edge="1">
          <mxGeometry width="50" height="50" relative="1" as="geometry">
            <mxPoint x="1030" y="280" as="sourcePoint" />
            <mxPoint x="1080" y="230" as="targetPoint" />
          </mxGeometry>
        </mxCell>
        <mxCell id="Wb_cBal-tWobdx_11K5l-51" value="dirige" style="rhombus;whiteSpace=wrap;html=1;" parent="1" vertex="1">
          <mxGeometry x="1070" y="380" width="80" height="80" as="geometry" />
        </mxCell>
      </root>
    </mxGraphModel>
  </diagram>
</mxfile>
